<mxfile host="Electron" agent="Mozilla/5.0 (Macintosh; Intel Mac OS X 10_15_7) AppleWebKit/537.36 (KHTML, like Gecko) draw.io/26.0.4 Chrome/128.0.6613.186 Electron/32.2.5 Safari/537.36" version="26.0.4">
  <diagram name="Page-1" id="GuTjw3bb9bO-8gRsp82z">
    <mxGraphModel dx="1366" dy="813" grid="1" gridSize="10" guides="1" tooltips="1" connect="1" arrows="1" fold="1" page="1" pageScale="1" pageWidth="1169" pageHeight="827" math="0" shadow="0">
      <root>
        <mxCell id="0" />
        <mxCell id="1" parent="0" />
        <mxCell id="KKd-m7Sz7rq_o4vLN1Js-1" value="" style="rounded=1;whiteSpace=wrap;html=1;fillColor=default;strokeWidth=3;strokeColor=default;" parent="1" vertex="1">
          <mxGeometry x="290" y="180" width="660" height="380" as="geometry" />
        </mxCell>
        <mxCell id="KKd-m7Sz7rq_o4vLN1Js-36" style="edgeStyle=orthogonalEdgeStyle;rounded=0;orthogonalLoop=1;jettySize=auto;html=1;exitX=0.25;exitY=1;exitDx=0;exitDy=0;entryX=0.5;entryY=0;entryDx=0;entryDy=0;startArrow=none;startFill=0;" parent="1" source="KKd-m7Sz7rq_o4vLN1Js-2" target="KKd-m7Sz7rq_o4vLN1Js-13" edge="1">
          <mxGeometry relative="1" as="geometry" />
        </mxCell>
        <mxCell id="KKd-m7Sz7rq_o4vLN1Js-64" style="edgeStyle=orthogonalEdgeStyle;rounded=0;orthogonalLoop=1;jettySize=auto;html=1;exitX=0.5;exitY=1;exitDx=0;exitDy=0;entryX=0.25;entryY=0;entryDx=0;entryDy=0;startArrow=classic;startFill=1;" parent="1" source="KKd-m7Sz7rq_o4vLN1Js-2" target="KKd-m7Sz7rq_o4vLN1Js-5" edge="1">
          <mxGeometry relative="1" as="geometry" />
        </mxCell>
        <mxCell id="NvAKq2v35CBQigzoV5kt-19" value="Button" style="edgeLabel;html=1;align=center;verticalAlign=middle;resizable=0;points=[];" vertex="1" connectable="0" parent="KKd-m7Sz7rq_o4vLN1Js-64">
          <mxGeometry x="-0.1249" y="-1" relative="1" as="geometry">
            <mxPoint as="offset" />
          </mxGeometry>
        </mxCell>
        <mxCell id="QU67MItJe8plbBqo-H6h-6" style="edgeStyle=orthogonalEdgeStyle;rounded=0;orthogonalLoop=1;jettySize=auto;html=1;exitX=0.5;exitY=0;exitDx=0;exitDy=0;entryX=1;entryY=0.5;entryDx=0;entryDy=0;" parent="1" source="KKd-m7Sz7rq_o4vLN1Js-2" target="QU67MItJe8plbBqo-H6h-4" edge="1">
          <mxGeometry relative="1" as="geometry">
            <Array as="points">
              <mxPoint x="783" y="430" />
              <mxPoint x="783" y="231" />
            </Array>
          </mxGeometry>
        </mxCell>
        <mxCell id="NvAKq2v35CBQigzoV5kt-10" value="MOS servo" style="edgeLabel;html=1;align=center;verticalAlign=middle;resizable=0;points=[];" vertex="1" connectable="0" parent="QU67MItJe8plbBqo-H6h-6">
          <mxGeometry x="0.6192" relative="1" as="geometry">
            <mxPoint x="-13" as="offset" />
          </mxGeometry>
        </mxCell>
        <mxCell id="QU67MItJe8plbBqo-H6h-13" style="edgeStyle=orthogonalEdgeStyle;rounded=0;orthogonalLoop=1;jettySize=auto;html=1;exitX=1;exitY=0.75;exitDx=0;exitDy=0;entryX=0;entryY=0.5;entryDx=0;entryDy=0;" parent="1" source="KKd-m7Sz7rq_o4vLN1Js-2" target="QU67MItJe8plbBqo-H6h-12" edge="1">
          <mxGeometry relative="1" as="geometry">
            <Array as="points">
              <mxPoint x="840" y="475" />
              <mxPoint x="840" y="495" />
            </Array>
          </mxGeometry>
        </mxCell>
        <mxCell id="NvAKq2v35CBQigzoV5kt-34" value="MOS speaker" style="edgeLabel;html=1;align=center;verticalAlign=middle;resizable=0;points=[];" vertex="1" connectable="0" parent="QU67MItJe8plbBqo-H6h-13">
          <mxGeometry x="-0.4987" y="1" relative="1" as="geometry">
            <mxPoint x="29" y="-7" as="offset" />
          </mxGeometry>
        </mxCell>
        <mxCell id="NvAKq2v35CBQigzoV5kt-1" style="edgeStyle=orthogonalEdgeStyle;rounded=0;orthogonalLoop=1;jettySize=auto;html=1;exitX=0.5;exitY=0;exitDx=0;exitDy=0;entryX=0.5;entryY=1;entryDx=0;entryDy=0;" edge="1" parent="1" source="KKd-m7Sz7rq_o4vLN1Js-2" target="QU67MItJe8plbBqo-H6h-15">
          <mxGeometry relative="1" as="geometry">
            <Array as="points">
              <mxPoint x="768" y="430" />
              <mxPoint x="768" y="264" />
              <mxPoint x="625" y="264" />
            </Array>
          </mxGeometry>
        </mxCell>
        <mxCell id="NvAKq2v35CBQigzoV5kt-5" value="PWM servo" style="edgeLabel;html=1;align=center;verticalAlign=middle;resizable=0;points=[];" vertex="1" connectable="0" parent="NvAKq2v35CBQigzoV5kt-1">
          <mxGeometry x="0.4054" y="1" relative="1" as="geometry">
            <mxPoint x="21" as="offset" />
          </mxGeometry>
        </mxCell>
        <mxCell id="NvAKq2v35CBQigzoV5kt-17" style="edgeStyle=orthogonalEdgeStyle;rounded=0;orthogonalLoop=1;jettySize=auto;html=1;exitX=0.75;exitY=1;exitDx=0;exitDy=0;entryX=0.75;entryY=0;entryDx=0;entryDy=0;" edge="1" parent="1" source="KKd-m7Sz7rq_o4vLN1Js-2" target="KKd-m7Sz7rq_o4vLN1Js-5">
          <mxGeometry relative="1" as="geometry" />
        </mxCell>
        <mxCell id="NvAKq2v35CBQigzoV5kt-18" value="RGB" style="edgeLabel;html=1;align=center;verticalAlign=middle;resizable=0;points=[];" vertex="1" connectable="0" parent="NvAKq2v35CBQigzoV5kt-17">
          <mxGeometry x="0.2422" y="-2" relative="1" as="geometry">
            <mxPoint x="-6" y="-2" as="offset" />
          </mxGeometry>
        </mxCell>
        <mxCell id="NvAKq2v35CBQigzoV5kt-29" style="edgeStyle=orthogonalEdgeStyle;rounded=0;orthogonalLoop=1;jettySize=auto;html=1;exitX=0;exitY=0.75;exitDx=0;exitDy=0;" edge="1" parent="1" source="KKd-m7Sz7rq_o4vLN1Js-2" target="NvAKq2v35CBQigzoV5kt-28">
          <mxGeometry relative="1" as="geometry" />
        </mxCell>
        <mxCell id="NvAKq2v35CBQigzoV5kt-31" value="EOC" style="edgeLabel;html=1;align=center;verticalAlign=middle;resizable=0;points=[];" vertex="1" connectable="0" parent="NvAKq2v35CBQigzoV5kt-29">
          <mxGeometry x="-0.2465" relative="1" as="geometry">
            <mxPoint as="offset" />
          </mxGeometry>
        </mxCell>
        <mxCell id="KKd-m7Sz7rq_o4vLN1Js-2" value="ESP32-H2-Mini-N4" style="rounded=1;whiteSpace=wrap;html=1;" parent="1" vertex="1">
          <mxGeometry x="720" y="430" width="110" height="60" as="geometry" />
        </mxCell>
        <mxCell id="KKd-m7Sz7rq_o4vLN1Js-3" value="USB-C 6-pins&lt;div&gt;Power only&lt;/div&gt;" style="rounded=1;whiteSpace=wrap;html=1;" parent="1" vertex="1">
          <mxGeometry x="500" y="550" width="85" height="40" as="geometry" />
        </mxCell>
        <mxCell id="NvAKq2v35CBQigzoV5kt-39" style="edgeStyle=orthogonalEdgeStyle;rounded=1;orthogonalLoop=1;jettySize=auto;html=1;exitX=0;exitY=0.25;exitDx=0;exitDy=0;entryX=1;entryY=0.25;entryDx=0;entryDy=0;strokeColor=#FFB570;strokeWidth=2;align=center;verticalAlign=middle;fontFamily=Helvetica;fontSize=11;fontColor=default;labelBackgroundColor=default;endArrow=classic;curved=0;" edge="1" parent="1" source="KKd-m7Sz7rq_o4vLN1Js-5" target="KKd-m7Sz7rq_o4vLN1Js-13">
          <mxGeometry relative="1" as="geometry" />
        </mxCell>
        <mxCell id="NvAKq2v35CBQigzoV5kt-41" style="edgeStyle=orthogonalEdgeStyle;rounded=1;orthogonalLoop=1;jettySize=auto;html=1;exitX=0.75;exitY=1;exitDx=0;exitDy=0;entryX=0.75;entryY=0;entryDx=0;entryDy=0;strokeColor=#FFB570;strokeWidth=2;align=center;verticalAlign=middle;fontFamily=Helvetica;fontSize=11;fontColor=default;labelBackgroundColor=default;endArrow=classic;curved=0;" edge="1" parent="1" source="KKd-m7Sz7rq_o4vLN1Js-5" target="NvAKq2v35CBQigzoV5kt-32">
          <mxGeometry relative="1" as="geometry" />
        </mxCell>
        <mxCell id="NvAKq2v35CBQigzoV5kt-42" style="edgeStyle=orthogonalEdgeStyle;rounded=0;orthogonalLoop=1;jettySize=auto;html=1;exitX=0.5;exitY=1;exitDx=0;exitDy=0;entryX=0.5;entryY=0;entryDx=0;entryDy=0;" edge="1" parent="1" source="KKd-m7Sz7rq_o4vLN1Js-5" target="NvAKq2v35CBQigzoV5kt-32">
          <mxGeometry relative="1" as="geometry" />
        </mxCell>
        <mxCell id="NvAKq2v35CBQigzoV5kt-44" style="edgeStyle=orthogonalEdgeStyle;rounded=0;orthogonalLoop=1;jettySize=auto;html=1;exitX=0.25;exitY=1;exitDx=0;exitDy=0;entryX=0.25;entryY=0;entryDx=0;entryDy=0;" edge="1" parent="1" source="KKd-m7Sz7rq_o4vLN1Js-5" target="NvAKq2v35CBQigzoV5kt-32">
          <mxGeometry relative="1" as="geometry" />
        </mxCell>
        <mxCell id="KKd-m7Sz7rq_o4vLN1Js-5" value="6 solder holes:&lt;div&gt;RGB / 3V3&lt;/div&gt;&lt;div&gt;Button / GND&lt;/div&gt;" style="rounded=1;whiteSpace=wrap;html=1;" parent="1" vertex="1">
          <mxGeometry x="780" y="530" width="80" height="70" as="geometry" />
        </mxCell>
        <mxCell id="KKd-m7Sz7rq_o4vLN1Js-28" style="edgeStyle=orthogonalEdgeStyle;rounded=1;orthogonalLoop=1;jettySize=auto;html=1;exitX=0.5;exitY=0;exitDx=0;exitDy=0;entryX=0;entryY=0.5;entryDx=0;entryDy=0;strokeWidth=2;strokeColor=#FF33FF;curved=0;" parent="1" source="KKd-m7Sz7rq_o4vLN1Js-69" target="KKd-m7Sz7rq_o4vLN1Js-42" edge="1">
          <mxGeometry relative="1" as="geometry">
            <Array as="points">
              <mxPoint x="355" y="307" />
            </Array>
          </mxGeometry>
        </mxCell>
        <mxCell id="KKd-m7Sz7rq_o4vLN1Js-29" value="+VBAT" style="edgeLabel;html=1;align=center;verticalAlign=middle;resizable=0;points=[];" parent="KKd-m7Sz7rq_o4vLN1Js-28" vertex="1" connectable="0">
          <mxGeometry x="-0.1077" relative="1" as="geometry">
            <mxPoint y="2" as="offset" />
          </mxGeometry>
        </mxCell>
        <mxCell id="KKd-m7Sz7rq_o4vLN1Js-6" value="3.7V 1200mAh Battery with BMS" style="rounded=1;whiteSpace=wrap;html=1;" parent="1" vertex="1">
          <mxGeometry x="150" y="425" width="60" height="70" as="geometry" />
        </mxCell>
        <mxCell id="KKd-m7Sz7rq_o4vLN1Js-8" value="&lt;div&gt;3V3 Servo&lt;/div&gt;Motor" style="rounded=1;whiteSpace=wrap;html=1;" parent="1" vertex="1">
          <mxGeometry x="580" y="110" width="90" height="40" as="geometry" />
        </mxCell>
        <mxCell id="G6SHlTrtI_6M1miqGr9w-11" style="edgeStyle=orthogonalEdgeStyle;rounded=0;orthogonalLoop=1;jettySize=auto;html=1;exitX=0;exitY=0.5;exitDx=0;exitDy=0;entryX=0.75;entryY=0;entryDx=0;entryDy=0;" parent="1" source="KKd-m7Sz7rq_o4vLN1Js-9" target="KKd-m7Sz7rq_o4vLN1Js-2" edge="1">
          <mxGeometry relative="1" as="geometry">
            <Array as="points">
              <mxPoint x="803" y="235" />
              <mxPoint x="803" y="345" />
              <mxPoint x="803" y="345" />
            </Array>
          </mxGeometry>
        </mxCell>
        <mxCell id="G6SHlTrtI_6M1miqGr9w-12" value="I2C" style="edgeLabel;html=1;align=center;verticalAlign=middle;resizable=0;points=[];" parent="G6SHlTrtI_6M1miqGr9w-11" vertex="1" connectable="0">
          <mxGeometry x="-0.519" y="1" relative="1" as="geometry">
            <mxPoint as="offset" />
          </mxGeometry>
        </mxCell>
        <mxCell id="KKd-m7Sz7rq_o4vLN1Js-10" value="Speaker" style="rounded=1;whiteSpace=wrap;html=1;" parent="1" vertex="1">
          <mxGeometry x="1000" y="470" width="60" height="50" as="geometry" />
        </mxCell>
        <mxCell id="KKd-m7Sz7rq_o4vLN1Js-22" style="edgeStyle=orthogonalEdgeStyle;rounded=1;orthogonalLoop=1;jettySize=auto;html=1;exitX=1;exitY=0.75;exitDx=0;exitDy=0;entryX=0.25;entryY=0;entryDx=0;entryDy=0;curved=0;strokeWidth=2;strokeColor=#FFB570;" parent="1" source="KKd-m7Sz7rq_o4vLN1Js-11" target="KKd-m7Sz7rq_o4vLN1Js-2" edge="1">
          <mxGeometry relative="1" as="geometry" />
        </mxCell>
        <mxCell id="KKd-m7Sz7rq_o4vLN1Js-60" style="edgeStyle=orthogonalEdgeStyle;rounded=1;orthogonalLoop=1;jettySize=auto;html=1;exitX=1;exitY=0.25;exitDx=0;exitDy=0;entryX=0.5;entryY=1;entryDx=0;entryDy=0;strokeColor=#FFB570;strokeWidth=2;align=center;verticalAlign=middle;fontFamily=Helvetica;fontSize=11;fontColor=default;labelBackgroundColor=default;endArrow=classic;curved=0;" parent="1" source="KKd-m7Sz7rq_o4vLN1Js-11" target="KKd-m7Sz7rq_o4vLN1Js-9" edge="1">
          <mxGeometry relative="1" as="geometry" />
        </mxCell>
        <mxCell id="KKd-m7Sz7rq_o4vLN1Js-65" style="edgeStyle=orthogonalEdgeStyle;rounded=1;orthogonalLoop=1;jettySize=auto;html=1;exitX=1;exitY=0.5;exitDx=0;exitDy=0;entryX=0;entryY=0.25;entryDx=0;entryDy=0;strokeColor=#FFB570;strokeWidth=2;align=center;verticalAlign=middle;fontFamily=Helvetica;fontSize=11;fontColor=default;labelBackgroundColor=default;endArrow=classic;curved=0;" parent="1" source="KKd-m7Sz7rq_o4vLN1Js-11" target="KKd-m7Sz7rq_o4vLN1Js-12" edge="1">
          <mxGeometry relative="1" as="geometry">
            <Array as="points">
              <mxPoint x="790" y="308" />
              <mxPoint x="790" y="333" />
              <mxPoint x="920" y="333" />
            </Array>
          </mxGeometry>
        </mxCell>
        <mxCell id="QU67MItJe8plbBqo-H6h-16" style="edgeStyle=orthogonalEdgeStyle;rounded=1;orthogonalLoop=1;jettySize=auto;html=1;exitX=0.25;exitY=0;exitDx=0;exitDy=0;entryX=0.25;entryY=1;entryDx=0;entryDy=0;strokeColor=#FFB570;strokeWidth=2;align=center;verticalAlign=middle;fontFamily=Helvetica;fontSize=11;fontColor=default;labelBackgroundColor=default;endArrow=classic;curved=0;" parent="1" source="KKd-m7Sz7rq_o4vLN1Js-11" target="QU67MItJe8plbBqo-H6h-15" edge="1">
          <mxGeometry relative="1" as="geometry" />
        </mxCell>
        <mxCell id="KKd-m7Sz7rq_o4vLN1Js-11" value="&lt;div&gt;3V3 LDO&lt;/div&gt;WL9005P3-33" style="rounded=1;whiteSpace=wrap;html=1;" parent="1" vertex="1">
          <mxGeometry x="580" y="282" width="90" height="52" as="geometry" />
        </mxCell>
        <mxCell id="KKd-m7Sz7rq_o4vLN1Js-87" style="edgeStyle=orthogonalEdgeStyle;rounded=0;orthogonalLoop=1;jettySize=auto;html=1;exitX=0;exitY=0.5;exitDx=0;exitDy=0;entryX=1;entryY=0;entryDx=0;entryDy=0;startArrow=classic;startFill=1;" parent="1" source="KKd-m7Sz7rq_o4vLN1Js-12" target="KKd-m7Sz7rq_o4vLN1Js-2" edge="1">
          <mxGeometry relative="1" as="geometry">
            <Array as="points">
              <mxPoint x="830" y="345" />
            </Array>
          </mxGeometry>
        </mxCell>
        <mxCell id="NvAKq2v35CBQigzoV5kt-12" value="GPS RX/TX" style="edgeLabel;html=1;align=center;verticalAlign=middle;resizable=0;points=[];" vertex="1" connectable="0" parent="KKd-m7Sz7rq_o4vLN1Js-87">
          <mxGeometry x="-0.3415" relative="1" as="geometry">
            <mxPoint as="offset" />
          </mxGeometry>
        </mxCell>
        <mxCell id="KKd-m7Sz7rq_o4vLN1Js-91" style="edgeStyle=orthogonalEdgeStyle;rounded=0;orthogonalLoop=1;jettySize=auto;html=1;exitX=0;exitY=0.75;exitDx=0;exitDy=0;entryX=0.75;entryY=0;entryDx=0;entryDy=0;endArrow=none;endFill=0;strokeWidth=3;" parent="1" source="KKd-m7Sz7rq_o4vLN1Js-12" target="KKd-m7Sz7rq_o4vLN1Js-88" edge="1">
          <mxGeometry relative="1" as="geometry">
            <Array as="points">
              <mxPoint x="903" y="358" />
              <mxPoint x="903" y="413" />
              <mxPoint x="903" y="413" />
            </Array>
          </mxGeometry>
        </mxCell>
        <mxCell id="NvAKq2v35CBQigzoV5kt-15" style="edgeStyle=orthogonalEdgeStyle;rounded=0;orthogonalLoop=1;jettySize=auto;html=1;exitX=1;exitY=0.5;exitDx=0;exitDy=0;entryX=0;entryY=0.5;entryDx=0;entryDy=0;startArrow=classic;startFill=1;" edge="1" parent="1" source="KKd-m7Sz7rq_o4vLN1Js-12" target="NvAKq2v35CBQigzoV5kt-11">
          <mxGeometry relative="1" as="geometry" />
        </mxCell>
        <mxCell id="NvAKq2v35CBQigzoV5kt-16" style="edgeStyle=orthogonalEdgeStyle;rounded=0;orthogonalLoop=1;jettySize=auto;html=1;exitX=1;exitY=0.75;exitDx=0;exitDy=0;entryX=0;entryY=0.75;entryDx=0;entryDy=0;strokeColor=default;strokeWidth=3;align=center;verticalAlign=middle;fontFamily=Helvetica;fontSize=11;fontColor=default;labelBackgroundColor=default;endArrow=none;endFill=0;" edge="1" parent="1" source="KKd-m7Sz7rq_o4vLN1Js-12" target="NvAKq2v35CBQigzoV5kt-11">
          <mxGeometry relative="1" as="geometry" />
        </mxCell>
        <mxCell id="NvAKq2v35CBQigzoV5kt-25" style="edgeStyle=orthogonalEdgeStyle;rounded=1;orthogonalLoop=1;jettySize=auto;html=1;exitX=0.25;exitY=1;exitDx=0;exitDy=0;entryX=0.25;entryY=0;entryDx=0;entryDy=0;strokeColor=#FFB570;strokeWidth=2;align=center;verticalAlign=middle;fontFamily=Helvetica;fontSize=11;fontColor=default;labelBackgroundColor=default;endArrow=classic;curved=0;" edge="1" parent="1" source="KKd-m7Sz7rq_o4vLN1Js-12" target="QU67MItJe8plbBqo-H6h-9">
          <mxGeometry relative="1" as="geometry" />
        </mxCell>
        <mxCell id="KKd-m7Sz7rq_o4vLN1Js-12" value="4&lt;div&gt;solder&lt;/div&gt;&lt;div&gt;holes&lt;/div&gt;" style="rounded=1;whiteSpace=wrap;html=1;" parent="1" vertex="1">
          <mxGeometry x="920" y="320" width="60" height="50" as="geometry" />
        </mxCell>
        <mxCell id="NvAKq2v35CBQigzoV5kt-38" style="edgeStyle=orthogonalEdgeStyle;rounded=1;orthogonalLoop=1;jettySize=auto;html=1;exitX=0;exitY=0.25;exitDx=0;exitDy=0;entryX=1;entryY=0.25;entryDx=0;entryDy=0;strokeColor=#FFB570;strokeWidth=2;align=center;verticalAlign=middle;fontFamily=Helvetica;fontSize=11;fontColor=default;labelBackgroundColor=default;endArrow=classic;curved=0;" edge="1" parent="1" source="KKd-m7Sz7rq_o4vLN1Js-13" target="NvAKq2v35CBQigzoV5kt-28">
          <mxGeometry relative="1" as="geometry" />
        </mxCell>
        <mxCell id="KKd-m7Sz7rq_o4vLN1Js-13" value="4 solder holes:&lt;div&gt;RX0 / TX0&lt;/div&gt;&lt;div&gt;3V3 / GND&lt;/div&gt;" style="rounded=1;whiteSpace=wrap;html=1;" parent="1" vertex="1">
          <mxGeometry x="690" y="530" width="70" height="70" as="geometry" />
        </mxCell>
        <mxCell id="KKd-m7Sz7rq_o4vLN1Js-27" style="edgeStyle=orthogonalEdgeStyle;rounded=0;orthogonalLoop=1;jettySize=auto;html=1;exitX=1;exitY=0.75;exitDx=0;exitDy=0;strokeColor=#FF0000;strokeWidth=2;align=center;verticalAlign=middle;fontFamily=Helvetica;fontSize=11;fontColor=default;labelBackgroundColor=default;startArrow=classic;startFill=1;endArrow=none;endFill=0;" parent="1" source="KKd-m7Sz7rq_o4vLN1Js-26" edge="1">
          <mxGeometry relative="1" as="geometry">
            <mxPoint x="540" y="473" as="targetPoint" />
            <Array as="points">
              <mxPoint x="515" y="472" />
              <mxPoint x="540" y="473" />
            </Array>
          </mxGeometry>
        </mxCell>
        <mxCell id="KKd-m7Sz7rq_o4vLN1Js-38" value="&lt;div&gt;&lt;br&gt;&lt;/div&gt;&lt;div&gt;&lt;br&gt;&lt;/div&gt;" style="edgeStyle=orthogonalEdgeStyle;rounded=0;orthogonalLoop=1;jettySize=auto;html=1;exitX=0;exitY=0.5;exitDx=0;exitDy=0;entryX=1;entryY=0.5;entryDx=0;entryDy=0;strokeColor=#FF33FF;strokeWidth=2;align=center;verticalAlign=middle;fontFamily=Helvetica;fontSize=11;fontColor=default;labelBackgroundColor=default;endArrow=none;endFill=0;" parent="1" source="KKd-m7Sz7rq_o4vLN1Js-26" target="KKd-m7Sz7rq_o4vLN1Js-30" edge="1">
          <mxGeometry x="-0.2001" y="30" relative="1" as="geometry">
            <Array as="points">
              <mxPoint x="380" y="460" />
              <mxPoint x="380" y="460" />
            </Array>
            <mxPoint as="offset" />
          </mxGeometry>
        </mxCell>
        <mxCell id="G6SHlTrtI_6M1miqGr9w-6" style="edgeStyle=orthogonalEdgeStyle;rounded=0;orthogonalLoop=1;jettySize=auto;html=1;exitX=1;exitY=0.25;exitDx=0;exitDy=0;entryX=0;entryY=0.25;entryDx=0;entryDy=0;" parent="1" source="KKd-m7Sz7rq_o4vLN1Js-26" target="KKd-m7Sz7rq_o4vLN1Js-2" edge="1">
          <mxGeometry relative="1" as="geometry">
            <Array as="points">
              <mxPoint x="490" y="445" />
            </Array>
          </mxGeometry>
        </mxCell>
        <mxCell id="G6SHlTrtI_6M1miqGr9w-7" value="Charger Status" style="edgeLabel;html=1;align=center;verticalAlign=middle;resizable=0;points=[];" parent="G6SHlTrtI_6M1miqGr9w-6" vertex="1" connectable="0">
          <mxGeometry x="-0.0303" relative="1" as="geometry">
            <mxPoint x="10" as="offset" />
          </mxGeometry>
        </mxCell>
        <mxCell id="KKd-m7Sz7rq_o4vLN1Js-26" value="Charger&lt;div&gt;TP4054&lt;/div&gt;" style="rounded=1;whiteSpace=wrap;html=1;" parent="1" vertex="1">
          <mxGeometry x="400" y="435" width="90" height="50" as="geometry" />
        </mxCell>
        <mxCell id="KKd-m7Sz7rq_o4vLN1Js-39" value="" style="edgeStyle=orthogonalEdgeStyle;rounded=0;orthogonalLoop=1;jettySize=auto;html=1;exitX=0;exitY=0.5;exitDx=0;exitDy=0;entryX=1;entryY=0.5;entryDx=0;entryDy=0;strokeColor=#FF33FF;strokeWidth=2;align=center;verticalAlign=middle;fontFamily=Helvetica;fontSize=11;fontColor=default;labelBackgroundColor=default;endArrow=classic;startArrow=classic;startFill=1;" parent="1" source="KKd-m7Sz7rq_o4vLN1Js-30" target="KKd-m7Sz7rq_o4vLN1Js-6" edge="1">
          <mxGeometry x="-0.25" y="-30" relative="1" as="geometry">
            <mxPoint as="offset" />
          </mxGeometry>
        </mxCell>
        <mxCell id="KKd-m7Sz7rq_o4vLN1Js-30" value="JST PH2" style="rounded=1;whiteSpace=wrap;html=1;" parent="1" vertex="1">
          <mxGeometry x="250" y="440" width="60" height="40" as="geometry" />
        </mxCell>
        <mxCell id="KKd-m7Sz7rq_o4vLN1Js-41" value="+VBUS" style="edgeStyle=orthogonalEdgeStyle;rounded=0;orthogonalLoop=1;jettySize=auto;html=1;exitX=0.5;exitY=0;exitDx=0;exitDy=0;entryX=0.5;entryY=1;entryDx=0;entryDy=0;endArrow=classic;endFill=1;strokeWidth=2;strokeColor=#FF0000;" parent="1" source="G6SHlTrtI_6M1miqGr9w-1" target="KKd-m7Sz7rq_o4vLN1Js-40" edge="1">
          <mxGeometry x="-0.5" y="3" relative="1" as="geometry">
            <mxPoint x="543" y="540" as="sourcePoint" />
            <mxPoint x="543" y="390" as="targetPoint" />
            <mxPoint as="offset" />
          </mxGeometry>
        </mxCell>
        <mxCell id="NvAKq2v35CBQigzoV5kt-48" style="edgeStyle=orthogonalEdgeStyle;rounded=0;orthogonalLoop=1;jettySize=auto;html=1;exitX=0.5;exitY=0;exitDx=0;exitDy=0;strokeColor=#97D077;strokeWidth=2;align=center;verticalAlign=middle;fontFamily=Helvetica;fontSize=11;fontColor=default;labelBackgroundColor=default;endArrow=none;endFill=0;" edge="1" parent="1" source="KKd-m7Sz7rq_o4vLN1Js-40">
          <mxGeometry relative="1" as="geometry">
            <mxPoint x="542.5507246376811" y="310" as="targetPoint" />
          </mxGeometry>
        </mxCell>
        <mxCell id="KKd-m7Sz7rq_o4vLN1Js-40" value="Schotky diode" style="rounded=1;whiteSpace=wrap;html=1;" parent="1" vertex="1">
          <mxGeometry x="507.5" y="370" width="70" height="30" as="geometry" />
        </mxCell>
        <mxCell id="KKd-m7Sz7rq_o4vLN1Js-53" value="3V3_IN" style="edgeStyle=orthogonalEdgeStyle;rounded=0;orthogonalLoop=1;jettySize=auto;html=1;exitX=1;exitY=0.5;exitDx=0;exitDy=0;entryX=0;entryY=0.5;entryDx=0;entryDy=0;strokeColor=#97D077;strokeWidth=2;align=center;verticalAlign=middle;fontFamily=Helvetica;fontSize=11;fontColor=default;labelBackgroundColor=default;endArrow=classic;endFill=1;" parent="1" source="KKd-m7Sz7rq_o4vLN1Js-42" target="KKd-m7Sz7rq_o4vLN1Js-11" edge="1">
          <mxGeometry x="0.3926" y="1" relative="1" as="geometry">
            <mxPoint as="offset" />
            <Array as="points">
              <mxPoint x="455" y="308" />
            </Array>
          </mxGeometry>
        </mxCell>
        <mxCell id="KKd-m7Sz7rq_o4vLN1Js-42" value="PMOS" style="rounded=1;whiteSpace=wrap;html=1;" parent="1" vertex="1">
          <mxGeometry x="390" y="290" width="65" height="34" as="geometry" />
        </mxCell>
        <mxCell id="KKd-m7Sz7rq_o4vLN1Js-51" style="edgeStyle=orthogonalEdgeStyle;rounded=1;orthogonalLoop=1;jettySize=auto;html=1;exitX=0;exitY=0.5;exitDx=0;exitDy=0;entryX=0.5;entryY=1;entryDx=0;entryDy=0;strokeWidth=2;strokeColor=#FF0000;curved=0;" parent="1" source="KKd-m7Sz7rq_o4vLN1Js-49" target="KKd-m7Sz7rq_o4vLN1Js-42" edge="1">
          <mxGeometry relative="1" as="geometry">
            <Array as="points">
              <mxPoint x="422" y="420" />
            </Array>
          </mxGeometry>
        </mxCell>
        <mxCell id="KKd-m7Sz7rq_o4vLN1Js-55" value="+VBUS" style="edgeLabel;html=1;align=center;verticalAlign=middle;resizable=0;points=[];" parent="KKd-m7Sz7rq_o4vLN1Js-51" vertex="1" connectable="0">
          <mxGeometry x="0.3349" relative="1" as="geometry">
            <mxPoint as="offset" />
          </mxGeometry>
        </mxCell>
        <mxCell id="KKd-m7Sz7rq_o4vLN1Js-49" value="" style="rounded=1;whiteSpace=wrap;html=1;fillColor=none;strokeColor=none;" parent="1" vertex="1">
          <mxGeometry x="540" y="417" width="11.25" height="5" as="geometry" />
        </mxCell>
        <mxCell id="G6SHlTrtI_6M1miqGr9w-4" style="edgeStyle=orthogonalEdgeStyle;rounded=0;orthogonalLoop=1;jettySize=auto;html=1;exitX=0.5;exitY=1;exitDx=0;exitDy=0;entryX=0.5;entryY=0;entryDx=0;entryDy=0;endArrow=none;endFill=0;strokeWidth=2;strokeColor=#FF0000;" parent="1" source="KKd-m7Sz7rq_o4vLN1Js-31" target="KKd-m7Sz7rq_o4vLN1Js-3" edge="1">
          <mxGeometry relative="1" as="geometry" />
        </mxCell>
        <mxCell id="G6SHlTrtI_6M1miqGr9w-5" style="edgeStyle=orthogonalEdgeStyle;rounded=0;orthogonalLoop=1;jettySize=auto;html=1;exitX=0.5;exitY=0;exitDx=0;exitDy=0;entryX=0.5;entryY=1;entryDx=0;entryDy=0;strokeColor=#FF0000;strokeWidth=2;align=center;verticalAlign=middle;fontFamily=Helvetica;fontSize=11;fontColor=default;labelBackgroundColor=default;endArrow=none;endFill=0;" parent="1" source="KKd-m7Sz7rq_o4vLN1Js-31" target="G6SHlTrtI_6M1miqGr9w-1" edge="1">
          <mxGeometry relative="1" as="geometry" />
        </mxCell>
        <mxCell id="KKd-m7Sz7rq_o4vLN1Js-31" value="TVS diode" style="rounded=1;whiteSpace=wrap;html=1;" parent="1" vertex="1">
          <mxGeometry x="507.5" y="516" width="70" height="20" as="geometry" />
        </mxCell>
        <mxCell id="KKd-m7Sz7rq_o4vLN1Js-68" value="&lt;font style=&quot;font-size: 24px;&quot;&gt;&lt;font style=&quot;&quot; face=&quot;Newton Howard Font&quot;&gt;Zenith&lt;/font&gt;&lt;/font&gt;" style="rounded=1;whiteSpace=wrap;html=1;fillColor=#cdeb8b;strokeColor=none;align=center;" parent="1" vertex="1">
          <mxGeometry x="400" y="206" width="77.5" height="33" as="geometry" />
        </mxCell>
        <mxCell id="KKd-m7Sz7rq_o4vLN1Js-69" value="&lt;div&gt;750mA&lt;/div&gt;polyuse" style="rounded=1;whiteSpace=wrap;html=1;" parent="1" vertex="1">
          <mxGeometry x="330" y="445" width="50" height="30" as="geometry" />
        </mxCell>
        <mxCell id="KKd-m7Sz7rq_o4vLN1Js-78" style="edgeStyle=orthogonalEdgeStyle;rounded=1;orthogonalLoop=1;jettySize=auto;html=1;exitX=0.5;exitY=0;exitDx=0;exitDy=0;strokeColor=#FFB570;strokeWidth=2;align=center;verticalAlign=middle;fontFamily=Helvetica;fontSize=11;fontColor=default;labelBackgroundColor=default;endArrow=none;curved=0;endFill=0;entryX=0.75;entryY=1;entryDx=0;entryDy=0;" parent="1" target="KKd-m7Sz7rq_o4vLN1Js-11" edge="1">
          <mxGeometry relative="1" as="geometry">
            <mxPoint x="647.4375" y="340" as="targetPoint" />
            <mxPoint x="647.5" y="360" as="sourcePoint" />
          </mxGeometry>
        </mxCell>
        <mxCell id="KKd-m7Sz7rq_o4vLN1Js-75" style="edgeStyle=orthogonalEdgeStyle;rounded=0;orthogonalLoop=1;jettySize=auto;html=1;exitX=1;exitY=0.5;exitDx=0;exitDy=0;entryX=0;entryY=0;entryDx=0;entryDy=0;startArrow=classic;startFill=1;" parent="1" source="KKd-m7Sz7rq_o4vLN1Js-72" target="KKd-m7Sz7rq_o4vLN1Js-2" edge="1">
          <mxGeometry relative="1" as="geometry">
            <Array as="points">
              <mxPoint x="720" y="375" />
            </Array>
          </mxGeometry>
        </mxCell>
        <mxCell id="KKd-m7Sz7rq_o4vLN1Js-72" value="Reset Button" style="rounded=1;whiteSpace=wrap;html=1;" parent="1" vertex="1">
          <mxGeometry x="630" y="360" width="45" height="30" as="geometry" />
        </mxCell>
        <mxCell id="KKd-m7Sz7rq_o4vLN1Js-88" value="NMOS&lt;div&gt;on GND&lt;/div&gt;" style="rounded=1;whiteSpace=wrap;html=1;" parent="1" vertex="1">
          <mxGeometry x="865" y="396" width="50" height="34" as="geometry" />
        </mxCell>
        <mxCell id="KKd-m7Sz7rq_o4vLN1Js-89" value="EOC" style="rounded=1;whiteSpace=wrap;html=1;" parent="1" vertex="1">
          <mxGeometry x="615" y="620" width="60" height="25" as="geometry" />
        </mxCell>
        <mxCell id="KKd-m7Sz7rq_o4vLN1Js-93" style="edgeStyle=orthogonalEdgeStyle;rounded=0;orthogonalLoop=1;jettySize=auto;html=1;exitX=0;exitY=0.5;exitDx=0;exitDy=0;entryX=1;entryY=0.25;entryDx=0;entryDy=0;endArrow=none;endFill=0;startArrow=classic;startFill=1;" parent="1" source="KKd-m7Sz7rq_o4vLN1Js-88" target="KKd-m7Sz7rq_o4vLN1Js-2" edge="1">
          <mxGeometry relative="1" as="geometry">
            <Array as="points">
              <mxPoint x="850" y="413" />
              <mxPoint x="850" y="445" />
            </Array>
          </mxGeometry>
        </mxCell>
        <mxCell id="NvAKq2v35CBQigzoV5kt-33" value="MOS GPS" style="edgeLabel;html=1;align=center;verticalAlign=middle;resizable=0;points=[];" vertex="1" connectable="0" parent="KKd-m7Sz7rq_o4vLN1Js-93">
          <mxGeometry x="0.1891" relative="1" as="geometry">
            <mxPoint x="15" y="2" as="offset" />
          </mxGeometry>
        </mxCell>
        <mxCell id="G6SHlTrtI_6M1miqGr9w-1" value="&lt;div&gt;1A polyf&lt;span style=&quot;background-color: initial;&quot;&gt;use&lt;/span&gt;&lt;/div&gt;" style="rounded=1;whiteSpace=wrap;html=1;" parent="1" vertex="1">
          <mxGeometry x="505.63" y="495" width="73.75" height="15" as="geometry" />
        </mxCell>
        <mxCell id="G6SHlTrtI_6M1miqGr9w-13" style="edgeStyle=orthogonalEdgeStyle;rounded=0;orthogonalLoop=1;jettySize=auto;html=1;exitX=0.25;exitY=0;exitDx=0;exitDy=0;entryX=0.128;entryY=1.012;entryDx=0;entryDy=0;entryPerimeter=0;" parent="1" source="KKd-m7Sz7rq_o4vLN1Js-13" target="KKd-m7Sz7rq_o4vLN1Js-2" edge="1">
          <mxGeometry relative="1" as="geometry">
            <Array as="points">
              <mxPoint x="715" y="506" />
              <mxPoint x="734" y="506" />
            </Array>
          </mxGeometry>
        </mxCell>
        <mxCell id="4o8Owgr6tQ6PC2TwXn1a-3" value="+3V3" style="edgeLabel;html=1;align=center;verticalAlign=middle;resizable=0;points=[];" parent="1" vertex="1" connectable="0">
          <mxGeometry x="690.0012765957447" y="307.0038297872341" as="geometry" />
        </mxCell>
        <mxCell id="QU67MItJe8plbBqo-H6h-1" style="edgeStyle=orthogonalEdgeStyle;rounded=0;orthogonalLoop=1;jettySize=auto;html=1;exitX=1;exitY=0.5;exitDx=0;exitDy=0;" parent="1" source="KKd-m7Sz7rq_o4vLN1Js-26" edge="1">
          <mxGeometry relative="1" as="geometry">
            <mxPoint x="720" y="459" as="targetPoint" />
          </mxGeometry>
        </mxCell>
        <mxCell id="QU67MItJe8plbBqo-H6h-2" value="Battery Sense" style="edgeLabel;html=1;align=center;verticalAlign=middle;resizable=0;points=[];" parent="QU67MItJe8plbBqo-H6h-1" vertex="1" connectable="0">
          <mxGeometry x="-0.0685" relative="1" as="geometry">
            <mxPoint x="13" as="offset" />
          </mxGeometry>
        </mxCell>
        <mxCell id="NvAKq2v35CBQigzoV5kt-2" style="edgeStyle=orthogonalEdgeStyle;rounded=0;orthogonalLoop=1;jettySize=auto;html=1;exitX=0;exitY=0.5;exitDx=0;exitDy=0;entryX=0.75;entryY=1;entryDx=0;entryDy=0;strokeColor=default;strokeWidth=3;align=center;verticalAlign=middle;fontFamily=Helvetica;fontSize=11;fontColor=default;labelBackgroundColor=default;endArrow=none;endFill=0;" edge="1" parent="1" source="QU67MItJe8plbBqo-H6h-4" target="QU67MItJe8plbBqo-H6h-15">
          <mxGeometry relative="1" as="geometry" />
        </mxCell>
        <mxCell id="QU67MItJe8plbBqo-H6h-4" value="NMOS&lt;div&gt;on GND&lt;/div&gt;" style="rounded=1;whiteSpace=wrap;html=1;" parent="1" vertex="1">
          <mxGeometry x="660" y="214" width="50" height="34" as="geometry" />
        </mxCell>
        <mxCell id="NvAKq2v35CBQigzoV5kt-20" style="edgeStyle=orthogonalEdgeStyle;rounded=1;orthogonalLoop=1;jettySize=auto;html=1;exitX=1;exitY=0.25;exitDx=0;exitDy=0;entryX=0;entryY=0.25;entryDx=0;entryDy=0;strokeColor=#FFB570;strokeWidth=2;align=center;verticalAlign=middle;fontFamily=Helvetica;fontSize=11;fontColor=default;labelBackgroundColor=default;endArrow=classic;curved=0;" edge="1" parent="1" source="QU67MItJe8plbBqo-H6h-9" target="KKd-m7Sz7rq_o4vLN1Js-10">
          <mxGeometry relative="1" as="geometry" />
        </mxCell>
        <mxCell id="NvAKq2v35CBQigzoV5kt-21" style="edgeStyle=orthogonalEdgeStyle;rounded=0;orthogonalLoop=1;jettySize=auto;html=1;exitX=1;exitY=0.75;exitDx=0;exitDy=0;entryX=0;entryY=0.75;entryDx=0;entryDy=0;" edge="1" parent="1" source="QU67MItJe8plbBqo-H6h-9" target="KKd-m7Sz7rq_o4vLN1Js-10">
          <mxGeometry relative="1" as="geometry" />
        </mxCell>
        <mxCell id="NvAKq2v35CBQigzoV5kt-37" style="edgeStyle=orthogonalEdgeStyle;rounded=1;orthogonalLoop=1;jettySize=auto;html=1;exitX=0;exitY=1;exitDx=0;exitDy=0;entryX=1;entryY=0.25;entryDx=0;entryDy=0;strokeColor=#FFB570;strokeWidth=2;align=center;verticalAlign=middle;fontFamily=Helvetica;fontSize=11;fontColor=default;labelBackgroundColor=default;endArrow=classic;curved=0;" edge="1" parent="1" source="QU67MItJe8plbBqo-H6h-9" target="KKd-m7Sz7rq_o4vLN1Js-5">
          <mxGeometry relative="1" as="geometry" />
        </mxCell>
        <mxCell id="QU67MItJe8plbBqo-H6h-9" value="2&amp;nbsp;&lt;div&gt;solder holes&lt;/div&gt;" style="rounded=1;whiteSpace=wrap;html=1;" parent="1" vertex="1">
          <mxGeometry x="920" y="470" width="60" height="50" as="geometry" />
        </mxCell>
        <mxCell id="NvAKq2v35CBQigzoV5kt-24" style="edgeStyle=orthogonalEdgeStyle;rounded=0;orthogonalLoop=1;jettySize=auto;html=1;exitX=1;exitY=0.5;exitDx=0;exitDy=0;entryX=0;entryY=0.5;entryDx=0;entryDy=0;strokeColor=default;strokeWidth=3;align=center;verticalAlign=middle;fontFamily=Helvetica;fontSize=11;fontColor=default;labelBackgroundColor=default;endArrow=none;endFill=0;" edge="1" parent="1" source="QU67MItJe8plbBqo-H6h-12" target="QU67MItJe8plbBqo-H6h-9">
          <mxGeometry relative="1" as="geometry" />
        </mxCell>
        <mxCell id="QU67MItJe8plbBqo-H6h-12" value="NMOS&lt;div&gt;on GND&lt;/div&gt;" style="rounded=1;whiteSpace=wrap;html=1;" parent="1" vertex="1">
          <mxGeometry x="860" y="480" width="50" height="30" as="geometry" />
        </mxCell>
        <mxCell id="NvAKq2v35CBQigzoV5kt-7" style="edgeStyle=orthogonalEdgeStyle;rounded=1;orthogonalLoop=1;jettySize=auto;html=1;exitX=0.25;exitY=0;exitDx=0;exitDy=0;entryX=0.25;entryY=1;entryDx=0;entryDy=0;strokeColor=#FFB570;strokeWidth=2;align=center;verticalAlign=middle;fontFamily=Helvetica;fontSize=11;fontColor=default;labelBackgroundColor=default;endArrow=classic;curved=0;" edge="1" parent="1" source="QU67MItJe8plbBqo-H6h-15" target="KKd-m7Sz7rq_o4vLN1Js-8">
          <mxGeometry relative="1" as="geometry" />
        </mxCell>
        <mxCell id="NvAKq2v35CBQigzoV5kt-8" style="edgeStyle=orthogonalEdgeStyle;rounded=0;orthogonalLoop=1;jettySize=auto;html=1;exitX=0.5;exitY=0;exitDx=0;exitDy=0;entryX=0.5;entryY=1;entryDx=0;entryDy=0;" edge="1" parent="1" source="QU67MItJe8plbBqo-H6h-15" target="KKd-m7Sz7rq_o4vLN1Js-8">
          <mxGeometry relative="1" as="geometry" />
        </mxCell>
        <mxCell id="NvAKq2v35CBQigzoV5kt-9" style="edgeStyle=orthogonalEdgeStyle;rounded=0;orthogonalLoop=1;jettySize=auto;html=1;exitX=0.75;exitY=0;exitDx=0;exitDy=0;entryX=0.75;entryY=1;entryDx=0;entryDy=0;strokeColor=default;strokeWidth=3;align=center;verticalAlign=middle;fontFamily=Helvetica;fontSize=11;fontColor=default;labelBackgroundColor=default;endArrow=none;endFill=0;" edge="1" parent="1" source="QU67MItJe8plbBqo-H6h-15" target="KKd-m7Sz7rq_o4vLN1Js-8">
          <mxGeometry relative="1" as="geometry" />
        </mxCell>
        <mxCell id="QU67MItJe8plbBqo-H6h-15" value="&lt;div&gt;3 solder holes&lt;div&gt;&lt;/div&gt;&lt;/div&gt;" style="rounded=1;whiteSpace=wrap;html=1;" parent="1" vertex="1">
          <mxGeometry x="580" y="170" width="90" height="24" as="geometry" />
        </mxCell>
        <mxCell id="NvAKq2v35CBQigzoV5kt-11" value="GPS + antenna" style="rounded=1;whiteSpace=wrap;html=1;" vertex="1" parent="1">
          <mxGeometry x="1000" y="320" width="60" height="50" as="geometry" />
        </mxCell>
        <mxCell id="NvAKq2v35CBQigzoV5kt-14" style="edgeStyle=orthogonalEdgeStyle;rounded=1;orthogonalLoop=1;jettySize=auto;html=1;exitX=1;exitY=0.25;exitDx=0;exitDy=0;entryX=0;entryY=0.25;entryDx=0;entryDy=0;strokeColor=#FFB570;strokeWidth=2;align=center;verticalAlign=middle;fontFamily=Helvetica;fontSize=11;fontColor=default;labelBackgroundColor=default;endArrow=classic;curved=0;" edge="1" parent="1" source="KKd-m7Sz7rq_o4vLN1Js-12" target="NvAKq2v35CBQigzoV5kt-11">
          <mxGeometry relative="1" as="geometry">
            <mxPoint x="980" y="345" as="sourcePoint" />
            <mxPoint x="1000" y="345" as="targetPoint" />
          </mxGeometry>
        </mxCell>
        <mxCell id="NvAKq2v35CBQigzoV5kt-35" style="edgeStyle=orthogonalEdgeStyle;rounded=0;orthogonalLoop=1;jettySize=auto;html=1;exitX=0.25;exitY=1;exitDx=0;exitDy=0;entryX=0.25;entryY=0;entryDx=0;entryDy=0;" edge="1" parent="1" source="NvAKq2v35CBQigzoV5kt-28" target="KKd-m7Sz7rq_o4vLN1Js-89">
          <mxGeometry relative="1" as="geometry" />
        </mxCell>
        <mxCell id="NvAKq2v35CBQigzoV5kt-36" style="edgeStyle=orthogonalEdgeStyle;rounded=1;orthogonalLoop=1;jettySize=auto;html=1;exitX=0.75;exitY=1;exitDx=0;exitDy=0;entryX=0.75;entryY=0;entryDx=0;entryDy=0;strokeColor=#FFB570;strokeWidth=2;align=center;verticalAlign=middle;fontFamily=Helvetica;fontSize=11;fontColor=default;labelBackgroundColor=default;endArrow=classic;curved=0;" edge="1" parent="1" source="NvAKq2v35CBQigzoV5kt-28" target="KKd-m7Sz7rq_o4vLN1Js-89">
          <mxGeometry relative="1" as="geometry" />
        </mxCell>
        <mxCell id="NvAKq2v35CBQigzoV5kt-28" value="2 solder holes:&lt;div&gt;3V3 / EOC&lt;/div&gt;" style="rounded=1;whiteSpace=wrap;html=1;" vertex="1" parent="1">
          <mxGeometry x="615" y="530" width="60" height="70" as="geometry" />
        </mxCell>
        <mxCell id="NvAKq2v35CBQigzoV5kt-32" value="Status RGB push button" style="rounded=1;whiteSpace=wrap;html=1;" vertex="1" parent="1">
          <mxGeometry x="780" y="620" width="80" height="50" as="geometry" />
        </mxCell>
        <mxCell id="NvAKq2v35CBQigzoV5kt-40" value="&lt;font style=&quot;font-size: 24px;&quot; face=&quot;Newton Howard Font&quot;&gt;V1.0&lt;/font&gt;" style="rounded=1;whiteSpace=wrap;html=1;strokeColor=none;fillColor=none;" vertex="1" parent="1">
          <mxGeometry x="401" y="217" width="120" height="60" as="geometry" />
        </mxCell>
        <mxCell id="NvAKq2v35CBQigzoV5kt-46" value="" style="ellipse;whiteSpace=wrap;html=1;aspect=fixed;fillColor=light-dark(#f5f4ee, #ededed);dashed=1;strokeWidth=2;" vertex="1" parent="1">
          <mxGeometry x="320" y="501" width="35" height="35" as="geometry" />
        </mxCell>
        <mxCell id="NvAKq2v35CBQigzoV5kt-47" value="" style="ellipse;whiteSpace=wrap;html=1;aspect=fixed;fillColor=light-dark(#f5f4ee, #ededed);dashed=1;strokeWidth=2;" vertex="1" parent="1">
          <mxGeometry x="320" y="204" width="35" height="35" as="geometry" />
        </mxCell>
        <mxCell id="NvAKq2v35CBQigzoV5kt-49" value="" style="ellipse;whiteSpace=wrap;html=1;aspect=fixed;fillColor=light-dark(#f5f4ee, #ededed);dashed=1;strokeWidth=2;" vertex="1" parent="1">
          <mxGeometry x="885" y="204" width="35" height="35" as="geometry" />
        </mxCell>
        <mxCell id="KKd-m7Sz7rq_o4vLN1Js-9" value="&lt;div&gt;Baro + Pressure&lt;/div&gt;BMP388/390" style="rounded=1;whiteSpace=wrap;html=1;" parent="1" vertex="1">
          <mxGeometry x="815" y="206" width="100" height="50" as="geometry" />
        </mxCell>
      </root>
    </mxGraphModel>
  </diagram>
</mxfile>
